<svg xmlns="http://www.w3.org/2000/svg" version="1.1" xmlns:xlink="http://www.w3.org/1999/xlink" xmlns:svgjs="http://svgjs.com/svgjs" width="300.000000pt" height="187.000000pt"><svg version="1.0" xmlns="http://www.w3.org/2000/svg" width="300.000000pt" height="187.000000pt" viewBox="0 0 300.000000 187.000000" preserveAspectRatio="xMidYMid meet">
<metadata>
Created by potrace 1.10, written by Peter Selinger 2001-2011
</metadata>
<g transform="translate(0.000000,187.000000) scale(0.100000,-0.100000)" fill="#000000" stroke="none">
<path d="M1205 1108 c-27 -5 -58 -14 -67 -19 -9 -5 -36 -12 -59 -15 -38 -6
-40 -8 -24 -21 12 -8 45 -13 86 -13 60 0 70 -3 88 -25 19 -25 41 -104 41 -149
l0 -24 -62 14 c-83 18 -191 19 -185 2 2 -9 26 -13 68 -14 38 0 90 -9 128 -22
78 -27 88 -27 100 -3 9 15 18 18 56 13 27 -3 69 2 106 13 87 24 121 15 153
-39 14 -25 42 -54 62 -66 30 -19 45 -22 102 -17 65 5 69 4 126 -34 56 -37 96
-50 96 -30 0 5 -10 13 -22 16 -13 4 -45 24 -73 44 -42 32 -56 37 -90 33 -34
-3 -44 1 -66 25 -15 15 -30 39 -34 52 -7 22 -5 23 16 17 114 -33 180 -29 231
15 23 20 23 20 -17 -1 -60 -31 -129 -27 -233 14 -48 19 -125 46 -172 61 -90
28 -163 62 -244 114 -30 18 -64 31 -85 32 l-36 1 33 8 c19 4 39 13 45 19 13
13 6 13 -68 -1z m-10 -46 c-3 -3 -11 0 -18 7 -9 10 -8 11 6 5 10 -3 15 -9 12
-12z m94 -26 c10 -12 57 -40 130 -76 29 -14 66 -29 90 -36 13 -3 40 -13 60
-22 20 -8 46 -16 58 -18 51 -6 64 -17 92 -75 15 -32 27 -59 25 -59 -23 0 -59
28 -85 67 -18 26 -33 49 -34 50 -1 2 -23 7 -50 12 -36 7 -59 5 -89 -5 -23 -8
-68 -16 -101 -18 -33 -1 -69 -7 -79 -11 -14 -6 -17 -5 -12 3 11 18 -14 132
-36 170 -19 32 -19 32 0 32 11 0 25 -6 31 -14z"></path>
</g>
</svg><style>@media (prefers-color-scheme: light) { :root { filter: none; } }
</style></svg>